{"asset": {"version": "2.0", "generator": "StroySync"}, "scene": 0, "scenes": [{"nodes": [0]}], "nodes": [{"mesh": 0, "name": "StroySyncTwin"}], "meshes": [{"primitives": [{"attributes": {"POSITION": 0}, "indices": 1, "mode": 4}]}], "buffers": [{"uri": "twin_20260918_212324.bin", "byteLength": 1920}], "bufferViews": [{"buffer": 0, "byteOffset": 0, "byteLength": 768, "target": 34962}, {"buffer": 0, "byteOffset": 768, "byteLength": 1152, "target": 34963}], "accessors": [{"bufferView": 0, "componentType": 5126, "count": 64, "type": "VEC3", "min": [-40.0, -1.399999976158142, -40.0], "max": [40.0, 2.4000000953674316, 40.0]}, {"bufferView": 1, "componentType": 5125, "count": 288, "type": "SCALAR"}]}